<svg width="330" height="330" viewBox="0 0 330 330" fill="none" xmlns="http://www.w3.org/2000/svg">
<path d="M174.706 30.5775C110.713 18.88 35.2792 79.5572 58.5539 132.711L96.4961 139.109C83.366 86.6348 131.581 62.8127 174.531 70.4648" fill="#1B1B1B"/>
<path fill-rule="evenodd" clip-rule="evenodd" d="M82.6395 55.8476C106.939 35.1935 142.342 22.6962 175.04 28.6712L174.364 32.4914C143.018 26.761 108.752 38.7498 85.1514 58.8021C61.8185 78.6332 49.4959 105.779 59.9161 130.971L93.9527 136.709C88.5174 111.187 97.4895 92.2796 113.341 80.6714C129.647 68.7409 152.999 64.6567 174.888 68.5546L174.209 72.3787C153.135 68.6245 130.905 72.6233 115.636 83.8045C100.494 94.8808 92.0038 113.14 98.3825 138.635C98.4612 138.948 98.4606 139.275 98.3809 139.588C98.3012 139.901 98.1449 140.188 97.926 140.425C97.7071 140.662 97.4325 140.841 97.1272 140.945C96.8219 141.05 96.4954 141.076 96.1773 141.023L58.2351 134.624C57.9174 134.571 57.618 134.44 57.3638 134.242C57.1097 134.044 56.9087 133.786 56.7792 133.491C44.6468 105.786 58.3826 76.4785 82.6395 55.8476Z" fill="#161616"/>
<path d="M173.984 233.97C139.248 228.449 109.828 199.382 100.013 164.301C99.6446 163.001 109.653 167.877 110.045 169.403L132.342 144.979L79.7165 75.4614C79.605 75.2894 79.4591 75.1424 79.2881 75.0295C79.1171 74.9166 78.9245 74.8402 78.7226 74.8053C78.52 74.7673 78.3116 74.7722 78.111 74.8197C77.9104 74.8672 77.722 74.9562 77.5579 75.0809L24.7851 126.86C24.588 127.079 24.4585 127.351 24.4124 127.643C24.3662 127.934 24.4053 128.232 24.5249 128.502C24.6242 128.803 24.8026 129.071 25.0413 129.279C25.2748 129.483 25.5568 129.625 25.8605 129.69L58.6237 135.191C59.7884 202.267 101.434 282.942 164.294 292.648C180.936 295.062 197.923 292.792 213.347 286.091L231.388 216.725C223.866 223.934 214.742 229.256 204.763 232.254C194.785 235.252 184.234 235.84 173.984 233.97Z" fill="#191919"/>
<path fill-rule="evenodd" clip-rule="evenodd" d="M77.6472 72.9338C78.1053 72.8247 78.5809 72.8102 79.0448 72.8911C79.5084 72.973 79.9499 73.1502 80.3415 73.4114C80.713 73.6523 81.0324 73.9651 81.281 74.3315L133.875 143.826C134.149 144.187 134.288 144.633 134.268 145.086C134.247 145.54 134.068 145.971 133.763 146.306L111.462 170.73C111.247 170.966 110.977 171.145 110.676 171.251C110.375 171.358 110.053 171.389 109.737 171.341C109.422 171.293 109.123 171.167 108.867 170.976C108.611 170.785 108.407 170.534 108.271 170.245L108.178 170.16C107.863 169.888 107.528 169.64 107.176 169.418C106.11 168.732 105.004 168.108 103.865 167.551C103.515 167.376 103.174 167.213 102.84 167.058C113.345 200.034 141.465 226.846 174.275 232.071H174.318C184.266 233.886 194.503 233.316 204.187 230.406C213.872 227.497 222.729 222.331 230.03 215.335C230.335 215.042 230.727 214.857 231.147 214.807C231.567 214.758 231.991 214.847 232.356 215.061C232.721 215.275 233.005 215.602 233.167 215.993C233.329 216.383 233.359 216.816 233.252 217.225L215.226 286.58C215.152 286.865 215.014 287.13 214.822 287.354C214.63 287.578 214.39 287.755 214.12 287.873C198.364 294.717 181.014 297.036 164.014 294.57H163.995C131.806 289.6 105.258 266.504 86.6736 236.459C68.3397 206.359 58.0249 172.064 56.7135 136.845L25.5382 131.588H25.4606C24.8434 131.458 24.2689 131.175 23.79 130.764C23.311 130.354 22.943 129.83 22.7196 129.24C22.4663 128.633 22.3902 127.967 22.5001 127.319C22.6101 126.671 22.9016 126.068 23.3408 125.579L23.4262 125.493L76.2262 73.7142C76.2859 73.6545 76.3495 73.5987 76.4165 73.5473C76.782 73.2633 77.2003 73.0548 77.6472 72.9338ZM78.4236 76.9637L26.5787 127.823L58.942 133.277C59.3887 133.352 59.795 133.581 60.0907 133.925C60.3864 134.268 60.5527 134.703 60.5609 135.156C61.581 170.235 71.7192 204.443 89.9775 234.413C108.225 263.899 133.918 285.99 164.581 290.73C180.547 293.044 196.841 290.953 211.705 284.681L227.925 222.315C220.365 228.307 211.613 232.617 202.254 234.957C192.895 237.297 183.145 237.613 173.654 235.884C138.084 230.22 108.135 200.527 98.146 164.837M78.4236 76.9637L129.818 144.862L109.972 166.603C109.766 166.452 109.548 166.304 109.331 166.157C108.131 165.386 106.888 164.683 105.608 164.053C104.435 163.457 103.225 162.939 101.986 162.5C101.485 162.318 100.963 162.2 100.433 162.15C99.9289 162.115 99.4271 162.242 99.0001 162.511C98.5852 162.784 98.2832 163.198 98.1499 163.676C98.0433 164.057 98.0433 164.46 98.1499 164.841" fill="#161616"/>
<path d="M289.973 171.728L252.027 165.33C252.189 174.837 250.446 184.28 246.902 193.102C243.357 201.925 238.082 209.949 231.388 216.701L213.347 286.067C256.278 268.061 289.67 220.331 289.973 171.728Z" fill="#191919"/>
<path fill-rule="evenodd" clip-rule="evenodd" d="M250.761 163.859C250.977 163.672 251.232 163.536 251.507 163.459C251.783 163.383 252.071 163.368 252.353 163.416L290.295 169.814C290.752 169.891 291.167 170.129 291.464 170.485C291.761 170.841 291.92 171.292 291.914 171.755C291.607 221.154 257.726 269.591 214.1 287.873C213.766 288.012 213.4 288.056 213.043 287.999C212.686 287.941 212.352 287.786 212.079 287.549C211.805 287.312 211.604 287.003 211.497 286.658C211.389 286.312 211.381 285.944 211.472 285.594L229.509 216.228C229.595 215.895 229.768 215.591 230.01 215.346C236.521 208.779 241.651 200.976 245.1 192.395C248.548 183.815 250.245 174.631 250.089 165.384C250.081 165.096 250.137 164.81 250.253 164.546C250.369 164.282 250.543 164.047 250.761 163.859ZM253.972 167.624C253.699 186.372 246.24 204.299 233.135 217.707L216.247 282.666C256.235 264.062 287.014 219.217 288.016 173.363L253.972 167.624Z" fill="#161616"/>
<path d="M174.543 70.4647C216.418 77.9188 250.49 118.544 251.965 161.948L218.794 156.342L195.403 179C196.505 180.436 269.556 225.11 271.171 225.374C272.786 225.638 301.709 200.407 302.816 199.339L325.283 175.517L289.926 168.37C288.603 103.472 237.6 42.077 174.706 30.5852" fill="#1B1B1B"/>
<path fill-rule="evenodd" clip-rule="evenodd" d="M291.825 166.774C289.709 101.551 238.373 40.2483 175.044 28.675L174.349 32.4953C236.3 43.8162 286.677 104.404 287.985 168.409C287.994 168.85 288.153 169.274 288.435 169.613C288.717 169.952 289.106 170.184 289.538 170.272L321.459 176.729L301.43 197.965L301.329 198.054L301.007 198.346L299.924 199.301C299.027 200.077 297.804 201.16 296.363 202.406C293.475 204.914 289.713 208.156 285.935 211.336C282.158 214.516 278.376 217.684 275.453 220.009C273.982 221.174 272.735 222.117 271.846 222.75C271.594 222.929 271.377 223.076 271.198 223.189L271.004 223.084C270.398 222.754 269.548 222.269 268.473 221.647C266.33 220.405 263.348 218.639 259.803 216.515C252.718 212.272 243.408 206.619 234.11 200.931C224.812 195.244 215.533 189.521 208.514 185.13C205.019 182.936 202.061 181.077 199.972 179.726C199.394 179.338 198.881 179.019 198.447 178.732L219.45 158.381L251.65 163.816C251.934 163.864 252.225 163.848 252.502 163.77C252.779 163.691 253.035 163.552 253.252 163.363C253.468 163.173 253.64 162.938 253.755 162.674C253.869 162.41 253.924 162.124 253.914 161.836C252.411 117.577 217.715 76.129 174.896 68.508L174.217 72.3282C214.368 79.5261 247.325 118.02 249.907 159.631L219.116 154.428C218.816 154.378 218.508 154.399 218.218 154.489C217.927 154.579 217.662 154.737 217.443 154.949L194.052 177.61C193.71 177.942 193.502 178.388 193.467 178.863C193.433 179.339 193.575 179.81 193.865 180.188C193.981 180.33 194.111 180.46 194.254 180.576C194.343 180.654 194.444 180.731 194.545 180.805C194.747 180.953 195.007 181.135 195.321 181.345C195.939 181.764 196.793 182.327 197.853 183.01C199.968 184.377 202.927 186.248 206.444 188.446C213.479 192.844 222.75 198.575 232.068 204.266C241.385 209.958 250.703 215.614 257.792 219.869C261.345 221.993 264.342 223.771 266.512 225.029C267.591 225.658 268.476 226.159 269.125 226.512C269.443 226.691 269.723 226.838 269.944 226.947C270.053 227.001 270.165 227.056 270.274 227.102C270.457 227.183 270.648 227.241 270.845 227.277C271.264 227.335 271.691 227.283 272.083 227.125C272.3 227.036 272.512 226.934 272.716 226.819C273.104 226.601 273.555 226.298 274.048 225.953C275.045 225.254 276.346 224.26 277.833 223.08C280.815 220.716 284.635 217.536 288.424 214.325C295.971 207.935 303.53 201.312 304.14 200.737L304.206 200.671L326.673 176.849C326.91 176.597 327.076 176.286 327.153 175.949C327.23 175.611 327.215 175.259 327.11 174.929C327.005 174.599 326.814 174.304 326.556 174.072C326.298 173.841 325.983 173.683 325.644 173.615L291.825 166.774ZM271.804 223.546C271.827 223.554 271.831 223.558 271.804 223.546V223.546Z" fill="#161616"/>
<path d="M251.965 161.949L218.794 156.342L195.403 179.004C196.509 180.436 269.556 225.111 271.171 225.375" fill="#1B1B1B"/>
<path fill-rule="evenodd" clip-rule="evenodd" d="M217.443 154.949C217.661 154.737 217.927 154.579 218.217 154.489C218.508 154.399 218.816 154.378 219.116 154.428L252.287 160.034L251.639 163.862L219.438 158.427L198.435 178.775C198.874 179.062 199.382 179.396 199.961 179.768C202.057 181.119 205.008 182.979 208.502 185.173C215.525 189.564 224.808 195.286 234.098 200.974C243.389 206.661 252.706 212.314 259.792 216.558C263.336 218.681 266.318 220.44 268.461 221.69C269.536 222.311 270.402 222.797 270.992 223.127C271.295 223.293 271.52 223.414 271.675 223.488L271.792 223.546C271.691 223.509 271.587 223.481 271.481 223.464L270.856 227.296C270.661 227.257 270.471 227.196 270.289 227.114C270.181 227.067 270.068 227.013 269.959 226.958C269.738 226.85 269.462 226.702 269.14 226.527C268.496 226.17 267.607 225.669 266.527 225.041C264.361 223.787 261.36 222.008 257.812 219.881C250.711 215.63 241.385 209.969 232.083 204.278C222.781 198.586 213.491 192.856 206.46 188.457C202.946 186.26 199.984 184.388 197.868 183.022C196.812 182.339 195.954 181.776 195.337 181.356C195.03 181.147 194.77 180.968 194.56 180.817C194.459 180.743 194.358 180.665 194.269 180.588C194.125 180.474 193.994 180.344 193.881 180.199C193.59 179.822 193.448 179.35 193.483 178.875C193.517 178.4 193.725 177.953 194.067 177.621L217.443 154.949ZM271.792 223.546C271.823 223.554 271.831 223.558 271.804 223.546H271.792Z" fill="#161616"/>
<path d="M152.235 53.0252C88.2382 41.3316 36.1603 87.1356 36.106 155.158L74.0443 161.553C74.122 116.055 109.129 85.2604 152.08 92.9125" fill="#292929"/>
<path fill-rule="evenodd" clip-rule="evenodd" d="M68.9116 72.7397C90.4005 53.8365 120.027 45.175 152.584 51.115L151.889 54.9352C120.442 49.1893 92.0349 57.5713 71.474 75.6553C51.2469 93.4481 38.4973 120.737 38.0469 153.516L72.1262 159.262C72.1376 149.211 74.2384 139.272 78.2953 130.076C82.3521 120.881 88.2764 112.629 95.6921 105.844C103.393 99.2061 112.51 94.4172 122.346 91.844C132.181 89.2708 142.476 88.9815 152.44 90.9984L151.761 94.8225C142.373 92.9094 132.672 93.1705 123.401 95.5857C114.13 98.0009 105.535 102.506 98.2739 108.756C90.9986 115.451 85.2445 123.629 81.4001 132.737C77.5557 141.846 75.7105 151.673 75.9892 161.556C75.9886 161.838 75.9266 162.116 75.8076 162.372C75.6886 162.627 75.5153 162.854 75.2999 163.036C75.0845 163.217 74.8322 163.35 74.5603 163.424C74.2885 163.499 74.0037 163.513 73.7258 163.466L35.7874 157.072C35.3342 156.996 34.9227 156.761 34.6263 156.41C34.3298 156.059 34.1676 155.614 34.1685 155.154C34.1956 120.64 47.4306 91.6195 68.9116 72.7397Z" fill="#161616"/>
<path d="M229.579 187.774C229.346 232.421 194.335 263.224 151.544 256.418C109.513 249.729 75.2595 208.572 74.1142 164.018L108.822 169.865C109.092 169.92 109.373 169.88 109.618 169.753C109.862 169.626 110.056 169.418 110.166 169.166C110.275 168.882 110.309 168.574 110.263 168.273C110.216 167.972 110.092 167.688 109.902 167.45L57.2686 97.8975C57.1566 97.7253 57.0098 97.5785 56.8377 97.4665C56.6679 97.3546 56.4769 97.2786 56.2766 97.2432C56.0763 97.2078 55.8709 97.2138 55.673 97.2608C55.4736 97.3075 55.286 97.3947 55.1217 97.517L2.32946 149.292C2.12722 149.508 1.99229 149.777 1.94122 150.069C1.89473 150.36 1.93244 150.659 2.04993 150.93C2.15472 151.229 2.33374 151.496 2.57016 151.707C2.80882 151.901 3.09135 152.035 3.39322 152.095L36.1681 157.62C37.3328 224.695 88.5449 286.611 151.4 296.313C215.024 306.135 267.118 260.32 267.529 194.18L229.579 187.774Z" fill="#292929"/>
<path fill-rule="evenodd" clip-rule="evenodd" d="M55.2108 95.37C55.8874 95.2088 56.5969 95.256 57.2461 95.5055C57.8954 95.7549 58.454 96.1949 58.8486 96.7676L111.423 166.242C111.821 166.744 112.081 167.342 112.175 167.976C112.27 168.609 112.197 169.256 111.963 169.853L111.928 169.927C111.642 170.577 111.145 171.112 110.517 171.444C109.889 171.775 109.167 171.885 108.469 171.755L76.1328 166.32C78.3807 209.119 111.544 248.102 151.839 254.511C193.38 261.111 227.413 231.314 227.638 187.774C227.639 187.492 227.702 187.214 227.822 186.96C227.942 186.705 228.115 186.479 228.331 186.298C228.547 186.117 228.799 185.985 229.071 185.911C229.343 185.838 229.627 185.824 229.905 185.871L267.851 192.277C268.308 192.354 268.723 192.592 269.02 192.948C269.317 193.304 269.477 193.755 269.47 194.219C269.047 261.457 215.96 308.255 151.105 298.235C87.7411 288.455 36.2416 226.582 34.2655 159.27L3.10577 154.013H3.032C2.4154 153.886 1.84057 153.606 1.3603 153.199C0.880023 152.792 0.509689 152.271 0.283298 151.683C0.0322212 151.074 -0.0415895 150.407 0.0703789 149.758C0.182347 149.109 0.475533 148.504 0.916121 148.015L0.993768 147.933L53.7549 96.1348C53.8137 96.0741 53.8773 96.0182 53.9452 95.9678C54.3224 95.6852 54.7529 95.4818 55.2108 95.37ZM55.9873 99.3998L4.13071 150.243L36.494 155.706C36.9407 155.781 37.3471 156.01 37.6427 156.353C37.9384 156.696 38.1047 157.132 38.1129 157.585C39.2776 223.802 89.8608 284.848 151.703 294.395C213.545 303.942 264.318 259.943 265.553 195.818L231.47 190.064C230.068 234.611 194.525 265.223 151.218 258.332C108.201 251.487 73.3336 209.476 72.1651 164.049C72.1576 163.762 72.2137 163.478 72.3292 163.216C72.4447 162.954 72.6168 162.72 72.8332 162.532C73.0496 162.345 73.3048 162.207 73.5806 162.13C73.8564 162.052 74.146 162.037 74.4285 162.084L107.646 167.679L55.9873 99.3998Z" fill="#161616"/>
<path d="M152.099 92.9086C193.974 100.382 228.038 140.988 229.517 184.408L196.342 178.802C196.079 178.751 195.806 178.789 195.566 178.91C195.321 179.036 195.126 179.241 195.015 179.493C194.904 179.773 194.869 180.078 194.914 180.376C194.959 180.674 195.082 180.955 195.271 181.189L244.394 245.151C245.447 246.55 246.986 247.504 248.708 247.822C249.479 247.962 250.273 247.92 251.026 247.7C251.779 247.479 252.47 247.087 253.044 246.553L302.824 199.32L267.463 190.81C266.135 125.912 215.129 64.513 152.235 53.0251" fill="#292929"/>
<path fill-rule="evenodd" clip-rule="evenodd" d="M196.792 179.998C196.792 180.021 197.534 180.933 197.538 180.96C197.542 180.988 196.816 180.165 196.8 180.207" fill="#161616"/>
<path fill-rule="evenodd" clip-rule="evenodd" d="M242.841 246.316L193.729 182.377L193.752 182.404L193.718 182.358C193.316 181.855 193.056 181.255 192.962 180.619C192.869 179.982 192.946 179.332 193.186 178.736V178.705V178.67C193.474 178.022 193.972 177.491 194.6 177.162C195.228 176.834 195.949 176.728 196.645 176.86H196.622H196.68H196.645L227.459 182.078C227.432 181.302 227.51 182.855 227.459 182.078C224.873 140.448 191.92 101.989 151.753 94.8225C151.502 94.7779 151.262 94.6842 151.047 94.5469C150.832 94.4096 150.647 94.2313 150.501 94.0222C150.355 93.8131 150.251 93.5773 150.196 93.3283C150.141 93.0792 150.136 92.8218 150.181 92.5707C150.225 92.3196 150.319 92.0798 150.456 91.8649C150.594 91.6499 150.772 91.4642 150.981 91.3182C151.19 91.1722 151.426 91.0688 151.675 91.0139C151.924 90.959 152.181 90.9538 152.433 90.9984C195.251 98.6388 229.944 140.052 231.45 184.33C231.46 184.618 231.406 184.904 231.291 185.168C231.177 185.432 231.005 185.668 230.788 185.857C230.572 186.047 230.315 186.186 230.038 186.264C229.761 186.342 229.471 186.358 229.187 186.31L197.534 180.96L245.947 243.986C246.701 245.001 247.81 245.694 249.053 245.928C249.526 246.013 250.012 245.988 250.474 245.854C250.935 245.722 251.358 245.482 251.708 245.155L298.902 200.372L302.373 201.207L302.831 199.32L301.492 197.911L298.902 200.372L267.012 192.697C266.596 192.596 266.225 192.359 265.956 192.025C265.688 191.691 265.538 191.277 265.529 190.849C264.221 126.84 213.848 66.2522 151.893 54.9352C151.642 54.8893 151.403 54.7945 151.189 54.6561C150.974 54.5177 150.79 54.3385 150.645 54.1287C150.5 53.9188 150.398 53.6825 150.344 53.4332C150.29 53.1839 150.286 52.9265 150.332 52.6757C150.378 52.4248 150.473 52.1855 150.611 51.9713C150.75 51.7571 150.929 51.5723 151.139 51.4273C151.349 51.2824 151.585 51.1802 151.834 51.1266C152.083 51.073 152.341 51.0691 152.592 51.1149C215.936 62.6882 267.28 124.041 269.369 189.268L303.281 197.421C303.621 197.503 303.933 197.674 304.184 197.918C304.434 198.162 304.614 198.468 304.705 198.806C304.796 199.144 304.794 199.499 304.699 199.836C304.604 200.172 304.42 200.477 304.167 200.718L254.379 247.962C253.584 248.704 252.625 249.249 251.581 249.554C250.537 249.858 249.435 249.914 248.366 249.717C246.168 249.313 244.203 248.097 242.86 246.312" fill="#161616"/>
<path d="M267.463 190.81L289.907 168.362L325.267 175.513L302.823 199.32L267.463 190.81Z" fill="#1B1B1B"/>
<path fill-rule="evenodd" clip-rule="evenodd" d="M288.533 166.988C288.759 166.761 289.039 166.595 289.346 166.503C289.653 166.411 289.977 166.396 290.291 166.46L325.652 173.611C325.991 173.68 326.306 173.837 326.564 174.069C326.821 174.3 327.013 174.595 327.118 174.925C327.223 175.255 327.237 175.607 327.161 175.945C327.084 176.282 326.918 176.593 326.681 176.845L304.237 200.652C304.002 200.901 303.706 201.083 303.378 201.18C303.05 201.278 302.702 201.287 302.369 201.207L267.009 192.697C266.673 192.616 266.365 192.448 266.116 192.209C265.867 191.969 265.686 191.668 265.592 191.336C265.499 191.004 265.495 190.652 265.583 190.318C265.67 189.984 265.845 189.68 266.089 189.435L288.533 166.988ZM290.544 170.482L271.283 189.742L302.183 197.181L321.459 176.725L290.544 170.482Z" fill="#161616"/>
</svg>
