<svg width="330" height="330" viewBox="0 0 330 330" fill="none" xmlns="http://www.w3.org/2000/svg">
<path fill-rule="evenodd" clip-rule="evenodd" d="M67.7209 60.9219L47.4201 76.9727L45.0122 73.9273L65.313 57.8765L67.7209 60.9219Z" fill="#161616"/>
<path d="M58.1851 32.3287L85.4342 15.5294L118.485 25.0336L91.2652 41.8292L58.1851 32.3287Z" fill="#1B1B1B"/>
<path fill-rule="evenodd" clip-rule="evenodd" d="M84.4153 13.8771C84.8806 13.5902 85.4452 13.5128 85.9705 13.6639L119.021 23.168C119.76 23.3804 120.304 24.0083 120.408 24.7696C120.513 25.5308 120.158 26.2821 119.504 26.6856L92.2844 43.4812C91.8192 43.7683 91.2546 43.8459 90.7292 43.695L57.649 34.1945C56.9103 33.9823 56.3663 33.3542 56.2617 32.5927C56.1572 31.8312 56.5119 31.0797 57.1662 30.6764L84.4153 13.8771ZM85.7223 17.6322L62.9432 31.6757L90.976 39.7266L113.731 25.6863L85.7223 17.6322Z" fill="#161616"/>
<path d="M118.485 25.0343V262.715L91.2651 279.514V41.83L118.485 25.0343Z" fill="#191919"/>
<path fill-rule="evenodd" clip-rule="evenodd" d="M119.431 23.3392C120.045 23.6821 120.426 24.3306 120.426 25.0343V262.715C120.426 263.388 120.077 264.013 119.504 264.367L92.2844 281.166C91.6856 281.536 90.9336 281.552 90.3191 281.21C89.7046 280.867 89.3237 280.218 89.3237 279.514V41.83C89.3237 41.1567 89.6726 40.5315 90.2456 40.178L117.465 23.3823C118.064 23.0128 118.816 22.9963 119.431 23.3392ZM93.2061 42.9132V276.035L116.544 261.632V28.5131L93.2061 42.9132Z" fill="#161616"/>
<path d="M91.2652 279.514L58.2143 270.01L58.1851 32.329L91.2652 41.8295V279.514Z" fill="#292929"/>
<path fill-rule="evenodd" clip-rule="evenodd" d="M57.0168 30.7784C57.5038 30.4116 58.1347 30.2949 58.7207 30.4631L91.8008 39.9636C92.6329 40.2026 93.2062 40.9637 93.2062 41.8294V279.514C93.2062 280.124 92.9197 280.698 92.4326 281.065C91.9455 281.431 91.3145 281.548 90.7285 281.379L57.6776 271.875C56.8459 271.636 56.273 270.875 56.2729 270.01L56.2437 32.3291C56.2436 31.7195 56.5299 31.1452 57.0168 30.7784ZM60.1263 34.9061L60.155 268.548L89.3238 276.936V43.2915L60.1263 34.9061Z" fill="#161616"/>
<path d="M96.2859 142.585L126.116 123.982C129.583 120.93 132.337 117.155 134.185 112.922C136.033 108.689 136.929 104.103 136.81 99.4856C136.612 92.1193 134.785 84.8885 131.458 78.3132C128.132 71.7379 123.389 65.9815 117.572 61.458L90.9873 77.7169L96.2859 142.585Z" fill="#1B1B1B"/>
<path fill-rule="evenodd" clip-rule="evenodd" d="M116.559 59.8019C117.248 59.3805 118.126 59.4297 118.763 59.9255C124.807 64.625 129.734 70.6055 133.19 77.4368C136.646 84.2682 138.545 91.7804 138.751 99.4333L138.751 99.4356C138.877 104.336 137.926 109.205 135.964 113.699C134.002 118.192 131.078 122.199 127.399 125.439C127.319 125.509 127.233 125.572 127.143 125.629L97.3129 144.232C96.7383 144.59 96.0187 144.623 95.4137 144.319C94.8088 144.015 94.406 143.417 94.3509 142.743L89.0524 77.8749C88.9927 77.1447 89.3493 76.4431 89.9743 76.0608L116.559 59.8019ZM93.0191 78.7495L97.9611 139.252L124.951 122.42C128.149 119.575 130.693 116.069 132.406 112.145C134.14 108.173 134.981 103.869 134.87 99.5359C134.679 92.4569 132.923 85.5082 129.726 79.1894C126.73 73.2675 122.539 68.0367 117.423 63.8245L93.0191 78.7495Z" fill="#161616"/>
<path d="M110.208 115.712C110.095 136.644 93.6087 150.318 73.3846 146.251C53.1604 142.183 36.7671 121.298 36.7671 99.5917C36.7671 77.8851 53.2558 64.2149 73.5932 69.0528C83.8812 71.8965 92.9876 77.9614 99.577 86.3585C106.166 94.7555 109.892 105.043 110.208 115.712Z" fill="#232323"/>
<path fill-rule="evenodd" clip-rule="evenodd" d="M48.7925 75.8623C42.63 80.9723 38.708 89.2375 38.708 99.5917C38.708 120.444 54.5165 140.476 73.7671 144.348C83.3475 146.275 91.9187 143.987 98.0985 138.862C104.274 133.74 108.204 125.665 108.266 115.735C107.956 105.493 104.376 95.6185 98.0496 87.5568C91.7237 79.4954 82.9839 73.6703 73.1097 70.9332C63.4936 68.6555 54.9383 70.7661 48.7925 75.8623ZM46.3143 72.8738C53.4899 66.9237 63.3348 64.6172 74.0422 67.1643C74.0649 67.1697 74.0876 67.1755 74.1101 67.1818C84.798 70.1359 94.2584 76.4367 101.104 85.1601C107.949 93.8835 111.82 104.571 112.148 115.654C112.149 115.677 112.149 115.7 112.149 115.722C112.089 126.71 107.721 135.925 100.577 141.85C93.4293 147.778 83.6453 150.295 73.0016 148.154C51.8039 143.891 34.8257 122.153 34.8257 99.5917C34.8257 88.2393 39.148 78.8161 46.3143 72.8738Z" fill="#161616"/>
<path fill-rule="evenodd" clip-rule="evenodd" d="M147.03 190.442L126.732 206.493L124.324 203.448L144.621 187.397L147.03 190.442Z" fill="#161616"/>
<path d="M137.493 47.9813L164.742 31.182L197.793 40.6862L170.573 57.4855L137.493 47.9813Z" fill="#1B1B1B"/>
<path fill-rule="evenodd" clip-rule="evenodd" d="M163.723 29.5296C164.189 29.2428 164.753 29.1654 165.279 29.3165L198.33 38.8206C199.068 39.0329 199.612 39.6609 199.716 40.4221C199.821 41.1833 199.466 41.9345 198.813 42.3381L171.593 59.1374C171.127 59.4245 170.563 59.5022 170.037 59.3512L136.957 49.847C136.218 49.6348 135.674 49.0067 135.57 48.2452C135.465 47.4837 135.82 46.7323 136.474 46.3289L163.723 29.5296ZM165.03 33.2848L142.251 47.3286L170.284 55.3827L193.039 41.339L165.03 33.2848Z" fill="#161616"/>
<path d="M197.793 40.687V282.25L170.573 299.049V57.4863L197.793 40.687Z" fill="#191919"/>
<path fill-rule="evenodd" clip-rule="evenodd" d="M198.739 38.9919C199.354 39.3347 199.735 39.9833 199.735 40.687V282.25C199.735 282.923 199.386 283.549 198.813 283.902L171.593 300.701C170.994 301.071 170.242 301.088 169.628 300.745C169.013 300.402 168.632 299.753 168.632 299.049V57.4863C168.632 56.8131 168.981 56.188 169.554 55.8344L196.774 39.0351C197.373 38.6655 198.125 38.649 198.739 38.9919ZM172.515 58.5694V295.57L195.852 281.167V44.1662L172.515 58.5694Z" fill="#161616"/>
<path d="M170.573 299.049L137.522 289.545L137.493 47.9816L170.573 57.4857V299.049Z" fill="#292929"/>
<path fill-rule="evenodd" clip-rule="evenodd" d="M136.326 46.4311C136.812 46.0643 137.443 45.9475 138.029 46.1159L171.11 55.6201C171.942 55.8591 172.515 56.6201 172.515 57.4858V299.049C172.515 299.659 172.228 300.233 171.741 300.6C171.254 300.966 170.623 301.083 170.037 300.915L136.986 291.41C136.154 291.171 135.582 290.41 135.581 289.545L135.552 47.9818C135.552 47.3722 135.839 46.7979 136.326 46.4311ZM139.435 50.5591L139.464 288.083L168.632 296.471V58.9477L139.435 50.5591Z" fill="#161616"/>
<path d="M175.594 268.223L205.425 249.62C208.891 246.568 211.646 242.793 213.494 238.56C215.342 234.327 216.237 229.741 216.119 225.124C215.922 217.758 214.095 210.527 210.77 203.951C207.444 197.376 202.702 191.619 196.885 187.096L170.3 203.355L175.594 268.223Z" fill="#1B1B1B"/>
<path fill-rule="evenodd" clip-rule="evenodd" d="M195.872 185.44C196.561 185.019 197.439 185.068 198.076 185.564C204.12 190.263 209.046 196.244 212.502 203.075C215.957 209.907 217.855 217.419 218.059 225.072L218.059 225.074C218.185 229.975 217.234 234.843 215.273 239.337C213.311 243.83 210.387 247.837 206.707 251.077C206.627 251.147 206.542 251.211 206.452 251.267L176.621 269.87C176.047 270.228 175.327 270.261 174.722 269.957C174.117 269.653 173.715 269.056 173.659 268.381L168.365 203.513C168.306 202.783 168.662 202.081 169.287 201.699L195.872 185.44ZM172.332 204.388L177.27 264.89L204.26 248.059C207.457 245.213 210.001 241.707 211.715 237.783C213.448 233.812 214.289 229.508 214.178 225.176C213.989 218.096 212.234 211.147 209.037 204.827C206.042 198.905 201.851 193.675 196.736 189.463L172.332 204.388Z" fill="#161616"/>
<path d="M189.52 241.35C189.407 262.279 172.922 275.953 152.697 271.889C132.473 267.825 116.079 246.936 116.079 225.23C116.079 203.523 132.564 189.853 152.902 194.691C163.191 197.533 172.298 203.598 178.888 211.995C185.478 220.392 189.205 230.68 189.52 241.35Z" fill="#232323"/>
<path fill-rule="evenodd" clip-rule="evenodd" d="M128.103 201.5C121.942 206.61 118.021 214.875 118.021 225.23C118.021 246.082 133.83 266.118 153.08 269.986C162.661 271.911 171.232 269.623 177.411 264.497C183.587 259.375 187.516 251.301 187.579 241.373C187.269 231.13 183.688 221.255 177.361 213.194C171.035 205.132 162.294 199.307 152.419 196.571C142.803 194.293 134.248 196.404 128.103 201.5ZM125.625 198.512C132.8 192.562 142.644 190.255 153.351 192.802C153.374 192.808 153.396 192.814 153.419 192.82C164.108 195.773 173.569 202.073 180.415 210.797C187.262 219.52 191.133 230.208 191.461 241.293C191.461 241.315 191.462 241.338 191.461 241.36C191.402 252.346 187.034 261.56 179.89 267.486C172.743 273.414 162.959 275.931 152.315 273.792C131.117 269.532 114.138 247.79 114.138 225.23C114.138 213.877 118.46 204.454 125.625 198.512Z" fill="#161616"/>
<path fill-rule="evenodd" clip-rule="evenodd" d="M226.342 122.759L206.041 138.81L203.633 135.764L223.934 119.714L226.342 122.759Z" fill="#161616"/>
<path d="M216.805 63.634L244.051 46.8347L277.102 56.3389L249.885 73.1382L216.805 63.634Z" fill="#1B1B1B"/>
<path fill-rule="evenodd" clip-rule="evenodd" d="M243.032 45.1823C243.497 44.8954 244.062 44.818 244.587 44.969L277.638 54.4732C278.377 54.6855 278.92 55.3134 279.025 56.0746C279.13 56.8358 278.775 57.587 278.122 57.9906L250.905 74.7899C250.44 75.0771 249.875 75.1548 249.35 75.0038L216.269 65.4996C215.531 65.2874 214.987 64.6593 214.882 63.8978C214.778 63.1364 215.132 62.385 215.787 61.9816L243.032 45.1823ZM244.339 48.9374L221.563 62.9811L249.597 71.0353L272.348 56.9917L244.339 48.9374Z" fill="#161616"/>
<path d="M277.102 56.3396V297.906L249.885 314.702V73.1389L277.102 56.3396Z" fill="#191919"/>
<path fill-rule="evenodd" clip-rule="evenodd" d="M278.048 54.6444C278.662 54.9873 279.043 55.6359 279.043 56.3396V297.906C279.043 298.58 278.694 299.205 278.121 299.558L250.905 316.354C250.306 316.724 249.554 316.74 248.94 316.397C248.325 316.054 247.944 315.406 247.944 314.702V73.1389C247.944 72.4658 248.293 71.8407 248.866 71.4871L276.082 54.6878C276.681 54.3181 277.433 54.3016 278.048 54.6444ZM251.827 74.2219V311.223L275.161 296.823V59.819L251.827 74.2219Z" fill="#161616"/>
<path d="M249.857 314.702L216.806 305.201L216.776 63.6342L249.857 73.1383V314.702Z" fill="#292929"/>
<path fill-rule="evenodd" clip-rule="evenodd" d="M215.608 62.0837C216.095 61.7169 216.726 61.6001 217.312 61.7685L250.392 71.2726C251.224 71.5117 251.797 72.2727 251.797 73.1383V314.702C251.797 315.311 251.511 315.885 251.024 316.252C250.537 316.619 249.906 316.736 249.32 316.567L216.269 307.067C215.437 306.828 214.864 306.067 214.864 305.201L214.835 63.6344C214.835 63.0248 215.121 62.4505 215.608 62.0837ZM218.718 66.2117L218.746 303.739L247.915 312.124V74.6003L218.718 66.2117Z" fill="#161616"/>
<path d="M254.906 204.418L284.736 185.819C288.202 182.766 290.956 178.989 292.804 174.756C294.652 170.523 295.549 165.936 295.431 161.319C295.232 153.953 293.404 146.723 290.077 140.149C286.751 133.574 282.009 127.818 276.193 123.295L249.608 139.55L254.906 204.418Z" fill="#1B1B1B"/>
<path fill-rule="evenodd" clip-rule="evenodd" d="M275.18 121.639C275.869 121.218 276.747 121.267 277.384 121.763C283.427 126.462 288.354 132.442 291.81 139.272C295.265 146.103 297.165 153.614 297.372 161.267L297.372 161.27C297.497 166.171 296.545 171.04 294.583 175.533C292.622 180.026 289.698 184.035 286.019 187.275C285.939 187.346 285.854 187.41 285.763 187.466L255.933 206.065C255.358 206.424 254.639 206.457 254.034 206.152C253.429 205.848 253.026 205.251 252.971 204.576L247.673 139.708C247.614 138.978 247.97 138.276 248.596 137.894L275.18 121.639ZM251.64 140.583L256.581 201.086L283.571 184.258C286.768 181.411 289.312 177.904 291.025 173.98C292.759 170.007 293.601 165.703 293.491 161.37C293.3 154.291 291.542 147.343 288.345 141.025C285.349 135.104 281.159 129.874 276.044 125.662L251.64 140.583Z" fill="#161616"/>
<path d="M268.828 177.548C268.715 198.477 252.23 212.151 232.006 208.087C211.781 204.023 195.387 183.131 195.387 161.428C195.387 139.725 211.872 126.048 232.21 130.886C242.499 133.729 251.606 139.795 258.196 148.192C264.786 156.59 268.512 166.878 268.828 177.548Z" fill="#232323"/>
<path fill-rule="evenodd" clip-rule="evenodd" d="M207.411 137.698C201.249 142.809 197.328 151.076 197.328 161.428C197.328 182.277 213.138 202.316 232.388 206.184C241.968 208.109 250.539 205.821 256.719 200.696C262.895 195.574 266.824 187.499 266.887 177.572C266.576 167.329 262.996 157.453 256.669 149.391C250.342 141.329 241.601 135.503 231.726 132.766C222.11 130.488 213.556 132.601 207.411 137.698ZM204.932 134.71C212.107 128.759 221.951 126.45 232.659 128.997C232.681 129.003 232.704 129.008 232.727 129.015C243.415 131.969 252.877 138.27 259.723 146.994C266.569 155.718 270.44 166.406 270.768 177.491C270.769 177.514 270.769 177.536 270.769 177.559C270.71 188.545 266.342 197.759 259.197 203.684C252.05 209.612 242.267 212.129 231.623 209.99C210.425 205.731 193.446 183.985 193.446 161.428C193.446 150.078 197.767 140.654 204.932 134.71Z" fill="#161616"/>
</svg>
